<svg width="25" height="24" viewBox="0 0 25 24" fill="none" xmlns="http://www.w3.org/2000/svg">
<path d="M7.75 11H5.25C4.83578 11 4.5 11.3358 4.5 11.75L4.5 19.25C4.5 19.6642 4.83578 20 5.25 20H7.75C8.16422 20 8.5 19.6642 8.5 19.25L8.5 11.75C8.5 11.3358 8.16422 11 7.75 11ZM6.5 18.75C6.08578 18.75 5.75 18.4142 5.75 18C5.75 17.5858 6.08578 17.25 6.5 17.25C6.91422 17.25 7.25 17.5858 7.25 18C7.25 18.4142 6.91422 18.75 6.5 18.75ZM16.5 6.54538C16.5 7.87088 15.6884 8.61438 15.4601 9.5L18.6389 9.5C19.6826 9.5 20.4951 10.3671 20.5 11.3156C20.5026 11.8761 20.2642 12.4796 19.8925 12.853L19.8891 12.8564C20.1964 13.5857 20.1465 14.6076 19.5982 15.3398C19.8695 16.149 19.596 17.1431 19.0863 17.676C19.2206 18.2259 19.1564 18.6939 18.8941 19.0707C18.2563 19.9871 16.6755 20 15.3387 20L15.2498 20C13.7408 19.9994 12.5059 19.45 11.5136 19.0086C11.0149 18.7867 10.3629 18.5121 9.86822 18.503C9.66385 18.4993 9.5 18.3325 9.5 18.1281L9.5 11.4478C9.5 11.3478 9.54007 11.2518 9.61119 11.1815C10.8491 9.95822 11.3814 8.66313 12.3961 7.64675C12.8587 7.18325 13.027 6.48313 13.1896 5.80606C13.3286 5.22791 13.6193 4 14.25 4C15 4 16.5 4.25 16.5 6.54538Z" fill="#616D81"/>
<path d="M6.5 18.75C6.08578 18.75 5.75 18.4142 5.75 18C5.75 17.5858 6.08578 17.25 6.5 17.25C6.91422 17.25 7.25 17.5858 7.25 18C7.25 18.4142 6.91422 18.75 6.5 18.75Z" fill="#616D81"/>
</svg>
