<svg width="24" height="24" viewBox="0 0 24 24" fill="none" xmlns="http://www.w3.org/2000/svg">
<path d="M12 20C16.4183 20 20 16.4183 20 12C20 7.58172 16.4183 4 12 4C7.58172 4 4 7.58172 4 12C4 16.4183 7.58172 20 12 20ZM8.07036 12.6443C8.02391 12.535 8 12.4178 8 12.2995C8 12.1812 8.02391 12.064 8.07036 11.9547C8.11681 11.8454 8.18489 11.7461 8.27072 11.6624C8.35655 11.5787 8.45845 11.5124 8.57059 11.4671C8.68273 11.4218 8.80293 11.3985 8.92431 11.3985C9.04569 11.3985 9.16588 11.4218 9.27803 11.4671C9.39017 11.5124 9.49206 11.5787 9.57789 11.6624L10.769 12.8249L14.4221 9.26389C14.5954 9.09493 14.8306 9 15.0757 9C15.3208 9 15.5559 9.09493 15.7293 9.26389C15.9026 9.43286 16 9.66204 16 9.90099C16 10.14 15.9026 10.3691 15.7293 10.5381L11.4233 14.7355C11.3376 14.8193 11.2357 14.8858 11.1236 14.9312C11.0114 14.9766 10.8912 15 10.7697 15C10.6483 15 10.528 14.9766 10.4159 14.9312C10.3037 14.8858 10.2019 14.8193 10.1161 14.7355L8.27072 12.9366C8.18489 12.8529 8.11681 12.7536 8.07036 12.6443Z" fill="white"/>
</svg>
