<svg width="25" height="24" viewBox="0 0 25 24" fill="none" xmlns="http://www.w3.org/2000/svg">
<path d="M11.375 19C11.375 19 10.25 19 10.25 17.8333C10.25 16.6667 11.375 13.1667 15.875 13.1667C20.375 13.1667 21.5 16.6667 21.5 17.8333C21.5 19 20.375 19 20.375 19L11.375 19Z" fill="white"/>
<path d="M15.875 12C17.739 12 19.25 10.433 19.25 8.5C19.25 6.567 17.739 5 15.875 5C14.011 5 12.5 6.567 12.5 8.5C12.5 10.433 14.011 12 15.875 12Z" fill="white"/>
<path d="M9.36841 19C9.21001 18.6686 9.125 18.2757 9.125 17.8333C9.125 16.252 9.88894 14.6256 11.3029 13.4933C10.6844 13.2881 9.96323 13.1667 9.125 13.1667C4.625 13.1667 3.5 16.6667 3.5 17.8333C3.5 19 4.625 19 4.625 19H9.36841Z" fill="white"/>
<path d="M8.5625 12C10.1158 12 11.375 10.6942 11.375 9.08333C11.375 7.4725 10.1158 6.16667 8.5625 6.16667C7.0092 6.16667 5.75 7.4725 5.75 9.08333C5.75 10.6942 7.0092 12 8.5625 12Z" fill="white"/>
</svg>
