<svg width="24" height="24" viewBox="0 0 24 24" fill="none" xmlns="http://www.w3.org/2000/svg">
<path d="M7 6H5.5C5.22386 6 5 5.77614 5 5.5V4.5C5 4.22386 5.22386 4 5.5 4H18.5C18.7761 4 19 4.22386 19 4.5V5.5C19 5.77614 18.7761 6 18.5 6H17V7.2C17 8.49234 16.5358 9.53174 15.6366 10.3813C15.0215 10.9624 14.2732 11.4976 13.5145 12C14.2732 12.5024 15.0215 13.0376 15.6366 13.6186C16.5358 14.4682 17 15.7077 17 17V18H18.5C18.7761 18 19 18.2239 19 18.5V19.5C19 19.7761 18.7761 20 18.5 20H5.5C5.22386 20 5 19.7761 5 19.5V18.5C5 18.2239 5.22386 18 5.5 18H7V17C7 15.7077 7.46414 14.4682 8.36341 13.6186C8.97847 13.0376 9.72677 12.5024 10.4855 12C9.72677 11.4976 8.97847 10.9624 8.36341 10.3813C7.46414 9.53174 7 8.49234 7 7.2V6ZM9.2 6C9.08954 6 9 6.08954 9 6.2V7.5C9 8.02301 9.0481 8.42927 9.44102 8.9276C9.47759 8.97398 9.5341 9 9.59316 9H14.4068C14.4659 9 14.5224 8.97397 14.559 8.92759C14.9519 8.42927 15 8.02301 15 7.5V6.2C15 6.08954 14.9105 6 14.8 6H9.2ZM12.1085 13.0471C12.0422 13.0048 11.9578 13.0048 11.8915 13.0471C11.0596 13.5779 9.86045 14.2775 9.18857 14.8341C9.11891 14.8918 9.16098 15 9.25144 15H14.7486C14.839 15 14.8811 14.8918 14.8114 14.8341C14.1396 14.2775 12.9404 13.5779 12.1085 13.0471Z" fill="white"/>
</svg>
