<svg width="16" height="16" viewBox="0 0 16 16" fill="none" xmlns="http://www.w3.org/2000/svg">
<path d="M5.33333 10.0013C6.4379 10.0013 7.33333 9.10587 7.33333 8.0013C7.33333 6.89673 6.4379 6.0013 5.33333 6.0013C4.22876 6.0013 3.33333 6.89673 3.33333 8.0013C3.33333 9.10587 4.22876 10.0013 5.33333 10.0013ZM5.33333 4.66797C6.94597 4.66797 8.29114 5.81314 8.59999 7.33464L13.3333 7.33464C13.7015 7.33464 14 7.63311 14 8.0013C14 8.36949 13.7015 8.66797 13.3333 8.66797H12.6667L12.6667 10.2013C12.6667 10.459 12.4577 10.668 12.2 10.668H10.4667C10.2089 10.668 10 10.459 10 10.2013L10 8.66797L8.59999 8.66797C8.29114 10.1895 6.94597 11.3346 5.33333 11.3346C3.49238 11.3346 2 9.84225 2 8.0013C2 6.16035 3.49238 4.66797 5.33333 4.66797Z" fill="#616D81"/>
</svg>
