<svg width="10" height="12" viewBox="0 0 10 12" fill="none" xmlns="http://www.w3.org/2000/svg">
<path d="M0.714355 9.81399C0.714355 10.6907 1.16683 11.1431 2.03138 11.1431H5.81277C6.67732 11.1431 7.1298 10.6866 7.1298 9.81399V9.0666H7.81659C8.68114 9.0666 9.13361 8.61009 9.13361 7.73746V4.54186C9.13361 4.00858 9.02049 3.66923 8.70134 3.34199L6.68944 1.2897C6.38241 0.97862 6.01881 0.857422 5.55422 0.857422H4.03519C3.17065 0.857422 2.71817 1.31394 2.71817 2.19061V2.93396H2.03138C1.16683 2.93396 0.714355 3.39451 0.714355 4.26714V9.81399ZM6.72176 5.56396L4.53211 3.34199C4.22507 3.03092 3.96248 2.94608 3.52212 2.938V2.23908C3.52212 1.87145 3.71604 1.66541 4.10387 1.66541H5.78853V3.58439C5.78853 4.08534 6.05517 4.34794 6.55208 4.34794H8.32562V7.68494C8.32562 8.05661 8.1317 8.26265 7.74387 8.26265H7.1298V6.71131C7.1298 6.16592 7.06112 5.9114 6.72176 5.56396ZM6.45513 3.48339V1.99265L8.11554 3.68135H6.65308C6.51168 3.68135 6.45513 3.62479 6.45513 3.48339ZM1.51831 9.76147V4.31966C1.51831 3.94798 1.71222 3.74195 2.1041 3.74195H3.33628V5.93968C3.33628 6.52547 3.62312 6.80827 4.20487 6.80827H6.32585V9.76147C6.32585 10.1331 6.13193 10.3392 5.74005 10.3392H2.10006C1.71222 10.3392 1.51831 10.1331 1.51831 9.76147ZM4.28163 6.10128C4.11599 6.10128 4.04327 6.0326 4.04327 5.86292V3.89546L6.21677 6.10128H4.28163Z" fill="#4040D9"/>
</svg>
