<svg width="12" height="12" viewBox="0 0 12 12" fill="none" xmlns="http://www.w3.org/2000/svg">
<path fill-rule="evenodd" clip-rule="evenodd" d="M3.9957 7.33481L4.3459 7.26301C5.14299 7.09956 5.74269 6.38648 5.74269 5.53361C5.74269 4.55899 4.96053 3.76891 3.9957 3.76891C3.03086 3.76891 2.24871 4.55899 2.24871 5.53361C2.24871 6.38648 2.84841 7.09956 3.6455 7.26301L3.9957 7.33481ZM3.49656 8.30672V8.00419C3.41173 7.9868 3.32846 7.96506 3.24699 7.93921C3.04969 7.87661 2.86295 7.78993 2.69014 7.68258C1.97612 7.239 1.5 6.44247 1.5 5.53361C1.5 4.1413 2.61736 3.0126 3.9957 3.0126C5.37403 3.0126 6.4914 4.1413 6.4914 5.53361C6.4914 6.44247 6.01528 7.239 5.30125 7.68258C5.12845 7.78993 4.94171 7.87661 4.74441 7.93921C4.66294 7.96506 4.57967 7.9868 4.49484 8.00419V8.30672H4.74441C4.93841 8.30672 5.10657 8.41853 5.18917 8.58183C5.22394 8.65057 5.24355 8.72843 5.24355 8.81092C5.24355 9.08939 5.02007 9.31513 4.74441 9.31513H4.49484V9.56723C4.49484 9.84569 4.27137 10.0714 3.9957 10.0714C3.72003 10.0714 3.49656 9.84569 3.49656 9.56723V9.31513H3.24699C2.97132 9.31513 2.74785 9.08939 2.74785 8.81092C2.74785 8.72843 2.76746 8.65057 2.80223 8.58183C2.88483 8.41853 3.05298 8.30672 3.24699 8.30672H3.49656Z" fill="#616D81"/>
<path fill-rule="evenodd" clip-rule="evenodd" d="M8.60919 4.19919L9.75129 2.88655V3.51681C9.75129 3.55643 9.75732 3.59463 9.76851 3.63052C9.81629 3.7838 9.95812 3.89496 10.1256 3.89496C10.3324 3.89496 10.5 3.72565 10.5 3.51681V1.87815C10.5 1.6693 10.3324 1.5 10.1256 1.5H8.50344C8.29669 1.5 8.12909 1.6693 8.12909 1.87815C8.12909 2.06309 8.26051 2.21702 8.43417 2.24984C8.45662 2.25408 8.47977 2.2563 8.50344 2.2563H9.12737L7.93857 3.47948C7.53039 3.18552 7.03089 3.0126 6.4914 3.0126C6.23721 3.0126 5.9919 3.05099 5.76083 3.12234C5.65671 3.15449 5.65358 3.29752 5.74769 3.3528C5.92929 3.45948 6.09634 3.58864 6.24511 3.73651C6.27279 3.76402 6.31107 3.77776 6.34977 3.77462C6.39649 3.77084 6.44372 3.76891 6.4914 3.76891C7.45623 3.76891 8.23839 4.55899 8.23839 5.53361C8.23839 6.50823 7.45623 7.29832 6.4914 7.29832C6.44372 7.29832 6.39649 7.29639 6.34977 7.2926C6.31107 7.28947 6.27279 7.30321 6.24511 7.33072C6.09634 7.47858 5.92929 7.60774 5.74769 7.71442C5.65358 7.76971 5.65671 7.91274 5.76083 7.94489C5.9919 8.01624 6.23721 8.05462 6.4914 8.05462C7.86973 8.05462 8.98709 6.92593 8.98709 5.53361C8.98709 5.04358 8.84868 4.5862 8.60919 4.19919Z" fill="#616D81"/>
</svg>
