<svg
  width="12"
  height="12"
  viewBox="0 0 12 12"
  fill="none"
  xmlns="http://www.w3.org/2000/svg"
>
  <path
    d="M2.33521 2.33546C2.58978 2.0809 3.00252 2.0809 3.25709 2.33546L9.66499 8.74337C9.91956 8.99794 9.91956 9.41068 9.66499 9.66525C9.41043 9.91981 8.99769 9.91981 8.74312 9.66525L2.33521 3.25734C2.08065 3.00277 2.08065 2.59003 2.33521 2.33546Z"
    fill="#B3B9C2"
  />
  <path
    d="M2.33521 9.66524C2.08065 9.41067 2.08064 8.99793 2.33521 8.74337L8.74312 2.33546C8.99769 2.08089 9.41042 2.08089 9.66499 2.33546C9.91956 2.59003 9.91956 3.00276 9.66499 3.25733L3.25709 9.66524C3.00252 9.91981 2.58978 9.91981 2.33521 9.66524Z"
    fill="#B3B9C2"
  />
</svg>
