<svg width="16" height="16" viewBox="0 0 16 16" fill="none" xmlns="http://www.w3.org/2000/svg">
<path d="M3.99984 12.6667L3.99984 3.33333L7.33317 3.33333C7.70136 3.33333 7.99984 3.03486 7.99984 2.66667C7.99984 2.29848 7.70136 2 7.33317 2L3.99984 2C3.26346 2 2.6665 2.59695 2.6665 3.33333L2.6665 12.6667C2.6665 13.403 3.26346 14 3.99984 14H7.33317C7.70136 14 7.99984 13.7015 7.99984 13.3333C7.99984 12.9651 7.70136 12.6667 7.33317 12.6667H3.99984ZM10.4722 4.86193C10.2118 4.60158 9.78971 4.60158 9.52936 4.86193C9.26901 5.12227 9.26901 5.54438 9.52935 5.80473L11.0579 7.33333L6.66743 7.33333C6.29924 7.33333 6.00076 7.63181 6.00076 8C6.00076 8.36819 6.29924 8.66667 6.66743 8.66667L11.0579 8.66667L9.52935 10.1953C9.26901 10.4556 9.26901 10.8777 9.52936 11.1381C9.78971 11.3984 10.2118 11.3984 10.4722 11.1381L13.1388 8.4714C13.3992 8.21105 13.3992 7.78895 13.1388 7.5286L10.4722 4.86193Z" fill="#616D81"/>
</svg>
