<svg width="85" height="16" viewBox="0 0 85 16" fill="none" xmlns="http://www.w3.org/2000/svg">
<path d="M12.4652 7.86653H7.51066V2.93644C7.51066 2.81085 7.46066 2.6904 7.37166 2.60159C7.28265 2.51278 7.16194 2.46289 7.03607 2.46289H5.43094C5.3685 2.46271 5.30664 2.47483 5.24891 2.49855C5.19117 2.52227 5.13869 2.55712 5.09448 2.60111C5.05026 2.6451 5.01518 2.69737 4.99125 2.75491C4.96731 2.81245 4.95499 2.87414 4.95499 2.93644V7.86653H0.475075C0.349207 7.86653 0.228495 7.91642 0.139493 8.00523C0.050491 8.09404 0.000490241 8.21449 0.000490241 8.34008V10.1254C0.00031082 10.1877 0.0124539 10.2494 0.0362237 10.3071C0.0599935 10.3647 0.0949227 10.417 0.13901 10.4612C0.183097 10.5053 0.235475 10.5403 0.293144 10.5642C0.350812 10.588 0.412637 10.6003 0.475075 10.6003H4.95499V15.5263C4.95499 15.5886 4.96731 15.6503 4.99125 15.7079C5.01518 15.7654 5.05026 15.8177 5.09448 15.8617C5.13869 15.9057 5.19117 15.9405 5.24891 15.9642C5.30664 15.988 5.3685 16.0001 5.43094 15.9999H7.03607C7.16194 15.9999 7.28265 15.95 7.37166 15.8612C7.46066 15.7724 7.51066 15.6519 7.51066 15.5263V10.6003H12.4652V7.86653Z" fill="#F1564D"/>
<path d="M9.11837 9.2546H7.72189L7.4696 8.57421C7.46063 8.55062 7.4448 8.53025 7.42415 8.5157C7.40349 8.50115 7.37895 8.49309 7.35368 8.49256C7.32852 8.49193 7.30376 8.49886 7.2826 8.51245C7.26144 8.52604 7.24487 8.54566 7.23503 8.56877L7.00729 9.10355L6.71272 8.01493C6.70514 7.98739 6.68844 7.96321 6.66535 7.94633C6.64225 7.92945 6.61411 7.92087 6.58551 7.92197C6.5569 7.92307 6.52951 7.9338 6.50779 7.95241C6.48607 7.97102 6.4713 7.99641 6.46588 8.02446L6.11403 9.84381L5.86446 8.85861C5.85763 8.83259 5.84276 8.80938 5.82194 8.79228C5.80113 8.77518 5.77545 8.76506 5.74854 8.76336C5.72178 8.76338 5.6956 8.77126 5.67329 8.78602C5.65098 8.80078 5.63352 8.82177 5.62308 8.84637L5.4417 9.32944H0.0521634C-0.0173878 9.32944 -0.0173878 9.58118 0.0521634 9.58118H5.52898C5.55468 9.58101 5.57973 9.57313 5.60089 9.55857C5.62205 9.54401 5.63833 9.52345 5.64763 9.49954L5.71718 9.31311L6.00766 10.4575C6.0144 10.4849 6.03018 10.5091 6.05245 10.5264C6.07472 10.5437 6.10218 10.553 6.13039 10.5528C6.15924 10.5521 6.18699 10.5416 6.20906 10.523C6.23113 10.5045 6.24619 10.479 6.25177 10.4507L6.60771 8.60551L6.85454 9.52267C6.86128 9.54813 6.8758 9.57085 6.89609 9.58768C6.91638 9.60451 6.94143 9.61461 6.96774 9.61656C6.99367 9.61675 7.01912 9.60955 7.04111 9.59581C7.06309 9.58207 7.08069 9.56237 7.09184 9.539L7.33868 8.96339L7.51187 9.42606C7.52084 9.45018 7.53704 9.47097 7.55827 9.48557C7.5795 9.50018 7.60473 9.50791 7.63052 9.5077H12.465V9.2546H9.11837Z" fill="white"/>
<path d="M16.5438 2.46289H14.8105C14.6182 2.46289 14.4559 2.67517 14.4559 2.93644V7.86653H12.4648V10.6003H14.4559V15.5263C14.4559 15.7876 14.6127 15.9999 14.805 15.9999H16.5384C16.732 15.9999 16.8875 15.7876 16.8875 15.5263V2.93644C16.8929 2.67517 16.7375 2.46289 16.5438 2.46289Z" fill="white"/>
<path d="M30.8075 13.4239H22.0536C21.9198 13.4333 21.7855 13.4159 21.6585 13.3726C21.5316 13.3294 21.4146 13.2613 21.3145 13.1722C21.2258 13.0739 21.1577 12.9588 21.1144 12.8337C21.0711 12.7087 21.0533 12.5762 21.0622 12.4442V4.89324H30.8075V2.4629H19.8553C19.6871 2.46235 19.5206 2.49567 19.3657 2.56087C19.2198 2.62012 19.0878 2.70911 18.9784 2.82214C18.8683 2.93523 18.7808 3.06824 18.7206 3.21405C18.6582 3.36504 18.6266 3.52698 18.6279 3.69032V12.4442C18.612 12.9926 18.73 13.5366 18.9715 14.0295C19.1785 14.4363 19.4683 14.7956 19.8225 15.0841C20.1505 15.3488 20.5271 15.5471 20.9313 15.6679C21.2885 15.7796 21.6601 15.8392 22.0345 15.8448H30.8075V13.4239Z" fill="white"/>
<path d="M28.9857 7.93604H22.7629C22.3607 7.93604 22.0347 8.26137 22.0347 8.66269V9.65469C22.0347 10.056 22.3607 10.3813 22.7629 10.3813H28.9857C29.3879 10.3813 29.7139 10.056 29.7139 9.65469V8.66269C29.7139 8.26137 29.3879 7.93604 28.9857 7.93604Z" fill="white"/>
<path d="M47.186 3.21427C47.1221 3.06681 47.0294 2.93356 46.9132 2.82236C46.8026 2.71067 46.671 2.62188 46.5259 2.5611C46.3747 2.49833 46.2124 2.46641 46.0486 2.4672H40.5677C39.652 2.4574 38.7432 2.62564 37.892 2.96252C37.0986 3.27631 36.3765 3.74601 35.7687 4.34371C35.1612 4.94698 34.6841 5.66805 34.3667 6.46244C34.0227 7.31972 33.8508 8.23609 33.8608 9.1595V15.8504H36.2923V12.5655H44.8417V15.8504H47.2732V3.68782C47.2754 3.5258 47.2457 3.36493 47.186 3.21427ZM44.8417 10.1882H36.2923V9.20848C36.2771 8.61818 36.3743 8.03036 36.5787 7.47622C36.7449 7.03878 36.9904 6.63562 37.3029 6.2869C37.5778 5.98383 37.9036 5.73101 38.2657 5.53983C38.5834 5.37242 38.9174 5.23791 39.2626 5.1384C39.5345 5.05958 39.8129 5.00494 40.0945 4.97511C40.3345 4.95334 40.4927 4.94245 40.5677 4.94245H44.8417V10.1882Z" fill="white"/>
<path d="M64.4227 6.9658C64.4196 6.64566 64.3848 6.3266 64.319 6.01325C64.2479 5.66551 64.1367 5.32715 63.9876 5.00492C63.8303 4.66672 63.6354 4.34721 63.4067 4.05238C63.1667 3.74093 62.8796 3.46868 62.5557 3.24544C62.2013 3.00127 61.8119 2.81224 61.4006 2.6848C60.9229 2.5346 60.4245 2.45976 59.9236 2.46299H54.4237C54.0496 2.471 53.6788 2.53382 53.3231 2.64942C52.9208 2.77281 52.5451 2.97036 52.2157 3.23183C51.8592 3.51861 51.569 3.8788 51.3648 4.28779C51.1238 4.78081 51.0063 5.32481 51.0225 5.87309V15.8503H53.4554V5.87309C53.4462 5.74105 53.4638 5.60852 53.5072 5.48342C53.5505 5.35833 53.6187 5.24325 53.7077 5.14508C53.8077 5.0559 53.9247 4.98766 54.0517 4.94442C54.1786 4.90117 54.313 4.8838 54.4468 4.89334H59.9236C60.2117 4.88836 60.4978 4.94111 60.7651 5.04846C60.9997 5.14602 61.2114 5.29105 61.387 5.47439C61.5653 5.66296 61.7044 5.88497 61.7961 6.12756C61.8992 6.39731 61.9652 6.67973 61.9925 6.96716V8.06803C61.9974 8.35349 61.9469 8.63721 61.8438 8.90354C61.7493 9.14305 61.6047 9.3597 61.4197 9.53902C61.2312 9.7156 61.0103 9.85422 60.7692 9.94726C60.4991 10.0547 60.2138 10.1195 59.9236 10.1391H54.8873C54.7643 10.1391 54.6464 10.1879 54.5595 10.2746C54.4725 10.3614 54.4237 10.4791 54.4237 10.6018V12.0986C54.4236 12.2215 54.4725 12.3393 54.5594 12.4263C54.6463 12.5133 54.7642 12.5623 54.8873 12.5627H59.9236C60.6023 12.5575 61.2725 12.4116 61.8915 12.134C62.2317 11.9794 62.5522 11.7848 62.8462 11.5543C63.1575 11.3121 63.4306 11.0244 63.6562 10.7011C63.8993 10.3474 64.087 9.95873 64.2126 9.54855C64.356 9.0669 64.4255 8.56635 64.4186 8.06394L64.4227 6.9658Z" fill="white"/>
<path d="M80.1671 10.6275C80.0587 10.2695 79.8964 9.92992 79.6857 9.62057C79.4915 9.33748 79.2567 9.08439 78.9888 8.86942C78.7341 8.66489 78.4563 8.49088 78.161 8.35097C77.8822 8.21546 77.5889 8.11184 77.2868 8.04207C77.0132 7.97942 76.7341 7.94342 76.4536 7.93457H70.8417C70.3808 7.93457 70.0208 7.79849 69.7616 7.52634C69.4906 7.22332 69.3509 6.82556 69.373 6.42003C69.3566 6.01738 69.4957 5.62382 69.7616 5.32052C69.901 5.17734 70.0696 5.0657 70.2559 4.99315C70.4422 4.92061 70.642 4.88885 70.8417 4.90004H79.1197V2.46289H70.8417C70.4099 2.46891 69.9815 2.53955 69.5707 2.67245C69.0871 2.82149 68.6391 3.06728 68.2538 3.39482C67.8686 3.72236 67.5543 4.12478 67.3301 4.57754C67.0547 5.15184 66.9214 5.78369 66.9414 6.42003C66.9218 7.05809 67.055 7.69161 67.3301 8.26796C67.5633 8.74051 67.8948 9.15803 68.3024 9.49266C68.6784 9.79727 69.1087 10.0281 69.5707 10.173C69.9815 10.3059 70.4099 10.3766 70.8417 10.3826H76.4331C76.6446 10.3786 76.8549 10.4156 77.0523 10.4915C77.2298 10.562 77.3895 10.6707 77.52 10.8099C77.6498 10.95 77.75 11.1147 77.8146 11.2943C77.8847 11.4922 77.9193 11.7009 77.9169 11.9108C77.9371 12.3141 77.7981 12.7094 77.5296 13.0116C77.2705 13.2838 76.9068 13.4199 76.4386 13.4199H67.0546V15.8502H76.4358C76.7174 15.8478 76.9979 15.8168 77.2732 15.7577C77.5729 15.6929 77.8647 15.5957 78.1433 15.4678C78.4388 15.3321 78.7179 15.1632 78.9751 14.9643C79.2477 14.7543 79.4848 14.5021 79.6775 14.2173C79.8863 13.9049 80.0485 13.5638 80.1589 13.2049C80.2858 12.7858 80.3474 12.3498 80.3416 11.9121C80.3484 11.4776 80.2896 11.0446 80.1671 10.6275Z" fill="white"/>
<path d="M81.1272 1.91869V0.288484H80.4917V0H82.1146V0.288484H81.4791V1.91869H81.1272Z" fill="white"/>
<path d="M82.3659 1.91869V0H82.6741L83.3805 1.58666H83.296L84.0024 0H84.3079V1.91869H83.9887V0.495322H84.0869L83.4405 1.91869H83.2305L82.5841 0.495322H82.685V1.91869H82.3659Z" fill="white"/>
</svg>
