<svg width="12" height="12" viewBox="0 0 12 12" fill="none" xmlns="http://www.w3.org/2000/svg">
<path d="M6.2084 6.02408C7.50321 6.02408 8.5519 4.87908 8.5519 3.47726C8.5519 2.09684 7.50321 1 6.2084 1C4.91894 1 3.85955 2.11289 3.8649 3.48796C3.87025 4.88443 4.91359 6.02408 6.2084 6.02408ZM6.2084 5.08775C5.47004 5.08775 4.84403 4.38684 4.84403 3.48796C4.83868 2.61049 5.46469 1.93633 6.2084 1.93633C6.95746 1.93633 7.57277 2.59979 7.57277 3.47726C7.57277 4.37614 6.95211 5.08775 6.2084 5.08775ZM2.86972 11H9.54173C10.4674 11 10.9115 10.7057 10.9115 10.0744C10.9115 8.603 9.07624 6.64473 6.2084 6.64473C3.34056 6.64473 1.5 8.603 1.5 10.0744C1.5 10.7057 1.94409 11 2.86972 11ZM2.70385 10.0637C2.57544 10.0637 2.52729 10.0209 2.52729 9.92456C2.52729 9.10594 3.84885 7.58106 6.2084 7.58106C8.5626 7.58106 9.88416 9.10594 9.88416 9.92456C9.88416 10.0209 9.83601 10.0637 9.7076 10.0637H2.70385Z" fill="#616D81"/>
</svg>
