<svg width="52" height="32" viewBox="0 0 52 32" fill="none" xmlns="http://www.w3.org/2000/svg">
<path d="M8.22206 25.3332C8.22206 25.3332 6.6665 25.3332 6.6665 23.7776C6.6665 22.2221 8.22206 17.5554 15.9998 17.5554C23.7776 17.5554 25.3332 22.2221 25.3332 23.7776C25.3332 25.3332 23.7776 25.3332 23.7776 25.3332L8.22206 25.3332Z" fill="white"/>
<path d="M15.9998 15.9998C18.5772 15.9998 20.6665 13.9105 20.6665 11.3332C20.6665 8.75584 18.5772 6.6665 15.9998 6.6665C13.4225 6.6665 11.3332 8.75584 11.3332 11.3332C11.3332 13.9105 13.4225 15.9998 15.9998 15.9998Z" fill="white"/>
<path d="M43.5283 18.4706C43.7886 18.7309 44.2107 18.7309 44.4711 18.4706L48.4711 14.4706C48.7314 14.2102 48.7314 13.7881 48.4711 13.5278C48.2107 13.2674 47.7886 13.2674 47.5283 13.5278L43.9997 17.0564L40.4711 13.5278C40.2107 13.2674 39.7886 13.2674 39.5283 13.5278C39.2679 13.7881 39.2679 14.2102 39.5283 14.4706L43.5283 18.4706Z" fill="white"/>
</svg>
