<svg width="10" height="11" viewBox="0 0 10 11" fill="none" xmlns="http://www.w3.org/2000/svg">
<path d="M8.41093 3.12669L6.32831 5.20932C6.11965 5.41798 5.82672 5.38989 5.64614 5.20931C5.46156 5.02473 5.43748 4.73581 5.64614 4.52715L7.72877 2.44452L8.53132 1.7142L7.06265 1.81051L6.24404 1.80248C6.11563 1.80248 5.99124 1.75031 5.89493 1.65401C5.70633 1.46541 5.70633 1.19254 5.89493 1.00394C5.99124 0.907634 6.11162 0.859482 6.24003 0.859482L9.4382 0.855469C9.61476 0.855469 9.76324 0.907634 9.85553 0.999928C9.94782 1.09222 9.99999 1.24069 9.99999 1.41726L9.99598 4.61543C9.99598 4.74384 9.94782 4.86422 9.85152 4.96052C9.66292 5.14912 9.39005 5.14912 9.20145 4.96052C9.10113 4.86021 9.04896 4.73581 9.04896 4.6074L9.04495 3.79281L9.13725 2.32013L8.41093 3.12669Z" fill="#616D81"/>
<path fill-rule="evenodd" clip-rule="evenodd" d="M1.86007 1.85547C1.447 1.85547 1.05992 2.03764 0.746058 2.33976C0.227735 2.82745 0 3.44032 0 4.0963C0 4.82593 0.278003 5.59758 0.700926 6.33366C1.12641 7.07419 1.71457 7.80665 2.37439 8.46581C3.0345 9.12744 3.7721 9.71931 4.51753 10.1481C5.25811 10.5741 6.03505 10.8555 6.7659 10.8555C7.4368 10.8555 8.04404 10.6148 8.52247 10.0849C8.79896 9.77806 9 9.39031 9 8.96654C9 8.62821 8.8607 8.27676 8.52343 8.03873L7.18914 7.09223L7.18569 7.08984C6.94636 6.92395 6.6938 6.80391 6.42232 6.80391C6.06159 6.80391 5.78461 7.00775 5.56259 7.22954L5.31994 7.47193C5.09062 7.3354 4.67877 6.9881 4.2681 6.57786C4.05635 6.36634 3.85424 6.14959 3.68942 5.95449C3.53803 5.77529 3.43149 5.62992 3.3741 5.53063L3.61763 5.28403L3.62159 5.2799C3.82798 5.06456 4.04198 4.79064 4.04198 4.42649C4.04198 4.15117 3.92238 3.89855 3.75345 3.66031L2.80902 2.33864C2.56758 1.99986 2.21788 1.85547 1.86007 1.85547ZM1.27984 2.8967C1.47884 2.70466 1.6825 2.6269 1.86007 2.6269C1.99798 2.6269 2.10049 2.67359 2.18088 2.78646L3.12417 4.10653L3.12454 4.10705C3.25102 4.28555 3.27055 4.38036 3.27055 4.42649C3.27055 4.47058 3.24984 4.55249 3.06657 4.74411L2.75056 5.06417L2.7458 5.06937C2.62519 5.20081 2.57904 5.3582 2.57904 5.49525C2.57904 5.64355 2.62459 5.76637 2.67175 5.85397C2.76467 6.03266 2.9243 6.2442 3.10013 6.45233C3.28216 6.66779 3.49974 6.9007 3.7229 7.12363C4.15576 7.55603 4.65594 7.98918 4.98424 8.16842C5.06807 8.21714 5.19814 8.27046 5.35243 8.27046C5.50878 8.27046 5.66176 8.2103 5.78253 8.0997L5.78872 8.09404L6.10778 7.77531C6.28588 7.59741 6.37423 7.57534 6.42232 7.57534C6.46386 7.57534 6.55879 7.59421 6.74458 7.72271L8.07798 8.66856L8.07887 8.66919C8.18491 8.74396 8.22857 8.84449 8.22857 8.96654C8.22857 9.14228 8.14261 9.35402 7.94949 9.56842C7.6277 9.92473 7.23441 10.084 6.7659 10.084C6.22245 10.084 5.58157 9.87017 4.90216 9.47938C4.22766 9.09141 3.54316 8.54508 2.92033 7.92079L2.91986 7.92033C2.2968 7.29792 1.75429 6.61851 1.36981 5.94934C0.982704 5.27561 0.771429 4.63963 0.771429 4.0963C0.771429 3.6322 0.925886 3.22917 1.27605 2.90037L1.27984 2.8967Z" fill="#616D81"/>
</svg>
